<svg data-name="Layer 1" xmlns="http://www.w3.org/2000/svg" xmlns:xlink="http://www.w3.org/1999/xlink" width="864.81" height="658.45" viewBox="0 0 864.81 658.45"><defs><linearGradient id="a" x1="477.09" y1="779.22" x2="477.09" y2="120.78" gradientUnits="userSpaceOnUse"><stop offset="0" stop-color="gray" stop-opacity=".25"/><stop offset=".54" stop-color="gray" stop-opacity=".12"/><stop offset="1" stop-color="gray" stop-opacity=".1"/></linearGradient><linearGradient id="b" x1="309.42" y1="623" x2="309.42" y2="461" xlink:href="#a"/><linearGradient id="c" x1="773.42" y1="549" x2="773.42" y2="387" xlink:href="#a"/><linearGradient id="d" x1="664.42" y1="277" x2="664.42" y2="115" xlink:href="#a"/></defs><path d="M506.4 473.94l-.59-.14v-22.6a120.23 120.23 0 0089.79-97.09h.29c5.77 0 10.44-8.77 10.44-19.58 0-6.71-1.8-12.62-4.54-16.15q.62-6.2.63-12.57a125 125 0 00-38.62-90.49 80.54 80.54 0 00-8.87-23.81c-8.9-15.68-23.71-32-17.67-49l-39.1 4-.36-25.76c-12.2 2.19-17.31 16.33-24.55 26.4-17.41 24.22-52.35 27.59-75.46 46.45-7.85 6.41-25.51 25.9-22.19 38.68a124.75 124.75 0 00-23.84 73.53q0 6.36.63 12.57c-2.74 3.53-4.54 9.44-4.54 16.15 0 10.82 4.68 19.58 10.44 19.58h.29a120.23 120.23 0 0089.79 97.09v22.6l-.59.14c-13.46-1.57-149.3-11.94-119.51 211.46l18.27 67.36 4.07-.16a28.72 28.72 0 0056.39 5.11c25.87-.09 55.09-.17 70-.17s44.18.09 70 .17a28.72 28.72 0 0056.44-5.11l4.07.16 18.27-67.36C655.71 462 519.86 472.37 506.4 473.94z" transform="translate(-167.6 -120.78)" fill="url(#a)" opacity=".7"/><path fill="#e0e0e0" d="M0 625.16h645.61v21.88H0zm27.36 21.89h590.89V656H27.36z"/><path opacity=".1" d="M27.36 647.05h590.89v2.98H27.36zm166.04-20.22s86.63-.34 116.09-.34 116.09.34 116.09.34v-12.61H193.4z"/><path d="M425.59 624.3s-86.63-.34-116.09-.34-116.09.34-116.09.34V464.96a116.09 116.09 0 01116.08-116.09 116.09 116.09 0 01116.1 116.09z" fill="#6c63ff"/><path d="M298.5 290.83h22a16.76 16.76 0 0116.76 16.76v46.33a27.76 27.76 0 01-27.76 27.76 27.76 27.76 0 01-27.76-27.76v-46.33a16.76 16.76 0 0116.76-16.76z" fill="#fdb797"/><path d="M281.73 332.89a116.17 116.17 0 0055.52 0v-39.54h-55.52z" opacity=".1"/><circle cx="309.5" cy="189.88" r="121.14" fill="#333"/><circle cx="309.5" cy="217.64" r="116.09" fill="#fdb797"/><path d="M232.84 81.41c22.33-18.23 56.11-21.48 72.94-44.9 7-9.73 11.93-23.4 23.73-25.52l.35 24.9 37.79-3.88c-5.83 16.42 8.48 32.23 17.08 47.38a77.93 77.93 0 0110.09 36.68c-13.12 7.88-29.39-.72-44-5.31-14.2-4.46-29.29-4.92-44.17-5.34-7.63-.22-15.35-.42-22.8 1.25-6.53 1.47-12.64 4.34-18.82 6.93-10.05 4.21-41.79 20.09-51.13 9.85-10.58-11.61 10.32-35 18.94-42.04z" fill="#333"/><path d="M239.15 159.42c6.16 3.73 13.4 5.2 20.53 6.18a180.86 180.86 0 0088.11-9.9c4.6 11.66 15.83 19.67 27.77 23.48s24.69 4 37.22 4.15c2.76 0 5.72 0 8-1.53 5.58-3.77 2.88-12.4-.37-18.3l-16.17-29.28c-4.78-8.66-9.7-17.5-17.1-24.06-9.28-8.21-21.6-12.06-33.75-14.49a190.34 190.34 0 00-86.64 2.89c-30.22 8.13-69.04 35.78-27.6 60.86z" opacity=".1"/><path d="M239.15 156.9c6.16 3.73 13.4 5.2 20.53 6.18a180.86 180.86 0 0088.11-9.9c4.6 11.66 15.83 19.67 27.77 23.48s24.69 4 37.22 4.15c2.76 0 5.72 0 8-1.53 5.58-3.77 2.88-12.4-.37-18.3l-16.17-29.32c-4.78-8.66-9.7-17.5-17.1-24.06-9.28-8.21-21.6-12.06-33.75-14.49A190.34 190.34 0 00266.75 96c-30.22 8.16-69.04 35.81-27.6 60.9z" fill="#333"/><ellipse cx="424.33" cy="217.64" rx="10.1" ry="18.93" fill="#fdb797"/><ellipse cx="194.67" cy="217.64" rx="10.1" ry="18.93" fill="#fdb797"/><path d="M336.79 352.49s146.84-22.87 116.56 204.27l-17.66 65.11-50.48-2s32.81-75.71 12.62-126.19-61.04-141.19-61.04-141.19zm-54.59 0s-146.8-22.87-116.56 204.27l17.66 65.11 50.48-2s-32.81-75.71-12.62-126.19 61.04-141.19 61.04-141.19z" fill="#6c63ff"/><path d="M218.64 452.58s-10.1 78 7.57 100.71m174.14-98.71s10.1 76-7.57 98.71" opacity=".1"/><circle cx="404.08" cy="619.68" r="27.76" fill="#fdb797"/><circle cx="214.91" cy="619.68" r="27.76" fill="#fdb797"/><rect x="218.04" y="461" width="182.77" height="162" rx="21.34" ry="21.34" fill="url(#b)" opacity=".7"/><rect x="221.42" y="464" width="176" height="156" rx="21.34" ry="21.34" fill="#e0e0e0"/><path d="M275.85 608.93v-11.71a1.16 1.16 0 00-1.32-1.18 12.53 12.53 0 00-4.83 1.07v11.79h-3.3v-21.68h3.29v7.16a15.7 15.7 0 015.29-1.07c3 0 4.11 1.84 4.11 4.36v11.25h-3.26zm9.41-7.08c.11 3.92.88 4.69 3.29 4.69a17 17 0 005.68-1.26l.55 2.47a15.37 15.37 0 01-6.44 1.56c-5.49 0-6.34-3-6.34-7.82a26.07 26.07 0 01.82-7.21 18.82 18.82 0 016.61-1c4.5 0 5.87 2.5 5.87 6.86v1.67h-10zm4.17-5.79a22.05 22.05 0 00-3.84.27 17.45 17.45 0 00-.36 3.24h6.86c0-2.28-.41-3.51-2.66-3.51zm12 1.07v11.79h-3.29v-13.27a19 19 0 017.63-2.11v2.74a14 14 0 00-4.33.85zm13 12.18c-4.91 0-7.13-2.41-7.13-7.93 0-5.84 2.93-8.06 7.13-8.06 4.91 0 7.13 2.41 7.13 7.93 0 5.84-2.94 8.06-7.13 8.06zm0-13.25c-2.52 0-3.92 1.45-3.92 5.32 0 4.22 1.18 5.16 3.92 5.16 2.52 0 3.92-1.43 3.92-5.29 0-4.22-1.18-5.18-3.92-5.18zm23 12.86h-3.87a21.44 21.44 0 00-4.11-7h-1.73v7h-3.22v-21.7h3.29v12.45h1.54a20 20 0 003.87-6h3.7a25.74 25.74 0 01-4.69 6.64 46.5 46.5 0 015.29 8.58zm6.17.38c-3 0-4.11-1.84-4.11-4.36v-11.23h3.26v11.66a1.16 1.16 0 001.32 1.18 13.31 13.31 0 005-1.07v-11.77h3.33v13.22a17.45 17.45 0 01-8.73 2.38zm-1.45-27.61h-65.57a10.16 10.16 0 01-10.18-10.15v-86.25a10.16 10.16 0 0110.16-10.16h65.63a10.17 10.17 0 0110.21 10.16v86.25a10.16 10.16 0 01-10.17 10.16z" fill="#6762a6"/><path d="M320.29 567.04v-42.32s2.75-10.13-33.91 4.14c-.07.18-.07-39.14-.07-39.14l12-.07v25.19s33.54-13.21 33.54 10v42.18h-11.56zm6.83-62.15H314.4c4.57-5.59 8.71-15.17 8.71-15.17h13.14s-2.25 6.24-9.15 15.17zm-40.59 62.07v-24.1l12.05 12.05-12.05 12.05z" fill="#fff"/><rect x="682.04" y="387" width="182.77" height="162" rx="21.34" ry="21.34" fill="url(#c)" opacity=".7"/><rect x="685.42" y="390" width="176" height="156" rx="21.34" ry="21.34" fill="#e0e0e0"/><path d="M742 456.22a14.49 14.49 0 00.53 4.26 25.64 25.64 0 001.53 3.45 2.08 2.08 0 01.34 1.1 1.9 1.9 0 01-.91 1.44l-3 2a2.3 2.3 0 01-1.25.43 2.2 2.2 0 01-1.44-.67 14.82 14.82 0 01-1.72-2.25c-.48-.81-1-1.72-1.48-2.83a17.69 17.69 0 01-14.08 6.61c-4 0-7.23-1.15-9.58-3.45a13.51 13.51 0 01.81-19.06c2.92-2.49 6.8-3.74 11.73-3.74a37.92 37.92 0 015.08.38c1.77.24 3.59.62 5.51 1.05v-3.5c0-3.64-.77-6.18-2.25-7.66s-4.12-2.2-7.81-2.2a21.79 21.79 0 00-5.17.62 38.16 38.16 0 00-5.17 1.63 13.74 13.74 0 01-1.68.62 2.94 2.94 0 01-.77.14c-.67 0-1-.48-1-1.48v-2.35a3 3 0 01.34-1.68 3.59 3.59 0 011.34-1 27.57 27.57 0 016-2.16 29 29 0 017.47-.91c5.7 0 9.87 1.29 12.55 3.88s4 6.51 4 11.78v15.55zm-19.44 7.28a15.52 15.52 0 004.93-.86 10.67 10.67 0 004.55-3.07 7.6 7.6 0 001.63-3.07 17.19 17.19 0 00.48-4.17v-2a40 40 0 00-4.41-.81 36.09 36.09 0 00-4.5-.29c-3.21 0-5.56.62-7.14 1.92a6.84 6.84 0 004.45 12.36zm38.46 5.17a2.67 2.67 0 01-1.82-.48 3.9 3.9 0 01-1-1.87l-11.25-37a8.39 8.39 0 01-.43-1.92 1.05 1.05 0 011.15-1.2h4.69a2.65 2.65 0 011.87.48 3.92 3.92 0 011 1.87l8 31.71 7.47-31.71a3.36 3.36 0 01.91-1.87 3.29 3.29 0 011.92-.48h3.83a2.88 2.88 0 011.92.48 3.23 3.23 0 01.91 1.87l7.57 32.09 8.29-32.09a4.11 4.11 0 011-1.87 3.12 3.12 0 011.87-.48h4.45a1.06 1.06 0 011.2 1.2 4.78 4.78 0 01-.1.77 6.81 6.81 0 01-.34 1.2l-11.54 37a3.67 3.67 0 01-1 1.87 3.06 3.06 0 01-1.82.48h-4.12a2.88 2.88 0 01-1.92-.48 3.4 3.4 0 01-.91-1.92l-7.42-30.89-7.38 30.84a3.74 3.74 0 01-.91 1.92 3 3 0 01-1.92.48zm61.54 1.29a31.69 31.69 0 01-7.38-.86 21.79 21.79 0 01-5.51-1.92 3.45 3.45 0 01-1.48-1.34 3.38 3.38 0 01-.29-1.34v-2.44c0-1 .38-1.48 1.1-1.48a2.71 2.71 0 01.86.14c.29.1.72.29 1.2.48a26.05 26.05 0 005.27 1.68 28.76 28.76 0 005.7.57 12.92 12.92 0 007-1.58 5.16 5.16 0 002.49-4.55 4.66 4.66 0 00-1.29-3.35 12 12 0 00-4.84-2.49l-6.99-2.16c-3.5-1.1-6.08-2.73-7.66-4.89a11.41 11.41 0 01-2.39-6.94 10.66 10.66 0 011.29-5.32 12.31 12.31 0 013.45-3.93 15.2 15.2 0 015-2.49 20.87 20.87 0 016-.81 24 24 0 013.21.19c1.1.14 2.11.34 3.11.53s1.87.48 2.73.77a10.45 10.45 0 012 .86 4.14 4.14 0 011.44 1.2 2.58 2.58 0 01.43 1.58v2.25c0 1-.38 1.53-1.1 1.53a5 5 0 01-1.82-.57 21.91 21.91 0 00-9.2-1.87 12.36 12.36 0 00-6.37 1.34 4.62 4.62 0 00-2.25 4.26 4.52 4.52 0 001.44 3.4 14.31 14.31 0 005.27 2.63l6.8 2.16c3.45 1.1 5.94 2.63 7.42 4.6a10.84 10.84 0 012.2 6.71 12.31 12.31 0 01-1.25 5.56 12.88 12.88 0 01-3.5 4.21 15.44 15.44 0 01-5.32 2.68 22.77 22.77 0 01-6.85 1z" fill="#252f3e"/><path d="M831.61 493.22c-15.76 11.64-38.65 17.82-58.33 17.82a105.53 105.53 0 01-71.22-27.16c-1.48-1.34-.14-3.16 1.63-2.11a141.44 141.44 0 00125.62 7.81c2.63-1.2 4.89 1.72 2.3 3.64z" fill="#f90"/><path d="M838.17 485.77c-2-2.59-13.31-1.25-18.44-.62-1.53.19-1.77-1.15-.38-2.16 9-6.32 23.8-4.5 25.53-2.39s-.48 17-8.91 24c-1.29 1.1-2.54.53-2-.91 1.95-4.71 6.21-15.39 4.2-17.92z" fill="#f90"/><rect x="573.04" y="115" width="182.77" height="162" rx="21.34" ry="21.34" fill="url(#d)" opacity=".7"/><rect x="576.42" y="118" width="176" height="156" rx="21.34" ry="21.34" fill="#e0e0e0"/><path d="M639.93 236.63l-23.66-41 23.66-41h47.31l23.66 41-23.66 41h-47.31" fill="#cac9c2"/><path d="M664.4 214.36a18.44 18.44 0 1118.44-18.44 18.46 18.46 0 01-18.44 18.44" fill="#fff"/><path d="M701.48 140.94a10.13 10.13 0 00-7.91-4.57h-58.3a10.13 10.13 0 00-7.91 4.57l-17 29.5a9.69 9.69 0 001.06 5.35l11.53 19.71 20.58-35.56h65.06a9.5 9.5 0 014.76 1.5l-11.84-20.51" fill="#5072aa"/><path d="M611.07 169.16l-.75 1.29a9.7 9.7 0 001.06 5.35l11.53 19.71 6.13-10.6-18-15.76" fill="#4d6796"/><path d="M636.77 151.54a3.56 3.56 0 113.56-3.56 3.56 3.56 0 01-3.56 3.56m58.3-3.56a3.295 3.295 0 11-6.59.08v-.08a3.295 3.295 0 016.59 0z" fill="#fff"/><path d="M730.62 191.43l-17.31-30a9.5 9.5 0 00-4.76-1.5H685.1l20.3 35.78-32.12 56.75a9.28 9.28 0 01-3.3 3.16h23.6a10.13 10.13 0 007.91-4.57l29.15-50.49a10.12 10.12 0 000-9.13" fill="#cc4232"/><path d="M714.1 162.8l-.78-1.35a9.49 9.49 0 00-4.76-1.5H685.1l6.11 10.76 22.89-7.92" fill="#b23f33"/><path d="M691.77 246.9a3.56 3.56 0 113.56-3.56 3.56 3.56 0 01-3.56 3.56m27.69-47.42a3.56 3.56 0 113.56-3.56 3.56 3.56 0 01-3.56 3.56" fill="#fff"/><path d="M643.95 231.48L611.4 175.8a9.7 9.7 0 01-1.06-5.35l-12.11 21a10.13 10.13 0 000 9.13l29.17 50.47a10.13 10.13 0 007.91 4.56H670a9.28 9.28 0 003.3-3.16l11.88-21h-41.23" fill="#ecb02a"/><path d="M667.99 255.62h2a9.27 9.27 0 003.3-3.16l11.88-21h-12.63l-4.55 24.14" fill="#c79732"/><path d="M636.77 246.9a3.56 3.56 0 113.56-3.56 3.56 3.56 0 01-3.56 3.56m-27.74-47.42a3.56 3.56 0 113.56-3.56 3.56 3.56 0 01-3.56 3.56" fill="#fff"/></svg>