<svg data-name="Layer 1" xmlns="http://www.w3.org/2000/svg" width="1012.293" height="636.613" viewBox="0 0 1012.293 636.613"><path d="M378.793 266.434s83 4 88 33-97 3-97 3z" fill="#a0616a"/><path d="M247.793 174.434s14 4 25 28 33 46 33 46l89 17-15 45-85-11-53-30z" fill="#575a89"/><path d="M247.793 174.434s14 4 25 28 33 46 33 46l89 17-15 45-85-11-53-30z" opacity=".1"/><path fill="#3f3d56" d="M824.293 92.934h105v2h-105zm-415 0h333v2h-333zm-379 241h789v301h-789z"/><path fill="#a0616a" d="M115.793 128.434l9 57 62 3-7-84-64 24z"/><path d="M50.293 508.934l-3 126h94l14-50 11 50h98s2-144-9-145-205 19-205 19z" fill="#2f2e41"/><circle cx="135.793" cy="89.434" r="54" fill="#a0616a"/><path d="M44.793 514.434l28-138-37-183 85.214-31.976 41.786-5.024 21.007-3.921 14.993 3.921s60 15 63 26-12 101-12 101l-14 74 31 133s-129 44-220 24z" fill="#575a89"/><path opacity=".1" d="M82.293 243.934v37l117.992.161-111.992-12.161-6-25zM72.159 346.12l148.134-21.186L72.159 366.89v-20.77zm235.134-97.186l-15.881 57.225 26.881-55.337-11-1.888z"/><path d="M180.234 35.278l9.93-3.976s-20.763-22.858-49.65-20.87l8.124-8.945s-19.86-7.951-37.914 12.92c-9.491 10.971-20.473 23.868-27.318 38.395H72.77l4.439 9.773-15.535 9.773 15.945-1.756a54.612 54.612 0 00-.433 16.21 20.974 20.974 0 007.68 13.721s12.316-25.49 12.316-29.466v9.938s9.93-8.944 9.93-14.908l5.416 6.957 2.708-10.932 33.401 10.932-5.416-8.944 20.763 2.981-8.125-10.932S179.331 69.069 180.234 80c.903 10.933 7.773 21.292 7.773 21.292s18.406-51.107-7.773-66.015z" fill="#2f2e41"/><path fill="#d0cde1" d="M233.293 234.934h384v401h-384z"/><path fill="#6c63ff" d="M273.293 322.934h284v40h-284zm48.823 106H508.11v20H322.116zm.359 35h185.994v20H322.475zm.359 35h92.997v20h-92.997zm196.459 101h43v20h-43z"/><path d="M205.793 285.434s87-13 100 6-92 29-92 29z" fill="#a0616a"/><path d="M45.793 192.434h-6.266a10.215 10.215 0 00-6.956 2.707c-5.948 5.523-18.524 19.775-23.778 45.293-7 34-19 100 8 105s204-19 204-19l-13-46-128 1s2-22-2-36-32-53-32-53z" fill="#575a89"/><circle cx="409.293" cy="93.934" r="41" fill="#d0cde1"/><circle cx="596.293" cy="93.934" r="41" fill="#3f3d56"/><path d="M783.293 135.934a42 42 0 1142-42 42.047 42.047 0 01-42 42zm0-82a40 40 0 1040 40 40.046 40.046 0 00-40-40zm187 82a42 42 0 1142-42 42.047 42.047 0 01-42 42zm0-82a40 40 0 1040 40 40.046 40.046 0 00-40-40zm-566.652 57.443l-17.768-23.689 6.4-4.801 12.233 16.31 56.239-56.238 5.656 5.656-62.76 62.762zM16.496 633.831h816.595v2.782H16.496z" fill="#3f3d56"/></svg>